# xmcd CD database file
#
# Track frame offsets:
#	150
#	10280
#	32192
#	51662
#	76720
#	104136
#	118821
#	139748
#	155800
#	180857
#	195784
#
# Disc length: 2774 seconds
#
# Revision: 4
# Processed by: cddbd v1.5.2PL0 Copyright (c) Steve Scherf et al.
# Submitted via: CDex 1.51
#
DISCID=900ad40b
DTITLE=Average White Band - Soul Searching [Remaster]
DYEAR=1976
DGENRE=Soul/R&B
TTITLE0=Overture
TTITLE1=Love Your Life
TTITLE2=I'm The One
TTITLE3=A Love Of Your Own
TTITLE4=Queen Of My Soul
TTITLE5=Soul Searching
TTITLE6=Goin' Home
TTITLE7=Everybody's Darling
TTITLE8=Would You Stay
TTITLE9=Sunny Days (Make Me Think Of You)
TTITLE10=Digging Deeper (Finale)
EXTD=YEAR: 1976
EXTT0=
EXTT1=
EXTT2=
EXTT3=
EXTT4=
EXTT5=
EXTT6=
EXTT7=
EXTT8=
EXTT9=
EXTT10=
PLAYORDER=
